<svg version="1.1" id="island-layer" xmlns="http://www.w3.org/2000/svg" x="0" y="0" viewBox="0 0 1280 1024" xml:space="preserve">


    <path id="top-land" d="M1162.3 739.6c-10.3-16.5-24.8-30.8-40.2-46l.4-.5-.4.5c-12.3-12.2-25.1-24.8-36.8-39.5-43-54.2-60.1-122.1-72.3-187.5-3.5-18.7-11.6-35.1-24.8-50.2-12-13.7-28.2-26.5-50.8-40-42.7-25.6-87.9-42.6-138.3-52.1-43.7-8.2-91.4-10.9-149.9-8.4-34.3 1.4-61.6 0-86.1-4.5-33.7-6.2-61.8-18.2-85.7-36.7-19.3-14.9-34.4-33-49-50.5-6.5-7.8-13.3-15.9-20-23.1-33.9-36.4-75.5-53.3-118.7-68.9-47.8-17.2-82.1-27.1-121.4-8.5-25.4 12-67.7 53.5-74.2 86.4-1.7 8.6-.4 14.6 4.4 20.5 4.7 5.8 18.8 8.9 25.5 10.4 30.7 6.9 64.1 8 96.3 9.1 39.1 1.3 79.6 2.7 119.6 13.7 29.9 8.2 55.2 21.9 75.2 40.6 24.1 22.6 39.1 51.3 44.4 85 10.4 65.7 13.2 132.8 8.4 199.5-1.5 20.3-4.4 40.3-7.2 59.6-7 47.9-13.1 89.3 1.7 128.1 8.1 21.2 26.5 52.4 68.7 80.9 30.9 20.8 67.8 35.1 101.4 39.1 43.4 5.2 88.7-4.5 132.5-13.9 38-8.1 76.8-16.4 116.6-16.4 31.4 0 63.4 5.2 96.2 19.6 8.8 3.9 16.6 8 24.2 12 13 6.8 24.3 12.8 36.9 15.5 23.1 5 45.2 5 65.5 0 32-7.9 57.3-32.2 69.4-66.5 12.3-35.8 8.1-75.9-11.5-107.3z" fill="#f1eac8" />

</svg>