<?xml version="1.0" standalone="no"?>
<!DOCTYPE svg PUBLIC "-//W3C//DTD SVG 20010904//EN"
 "http://www.w3.org/TR/2001/REC-SVG-20010904/DTD/svg10.dtd">
<svg version="1.0" xmlns="http://www.w3.org/2000/svg"
 width="300.000000pt" height="300.000000pt" viewBox="0 0 300.000000 300.000000"
 preserveAspectRatio="xMidYMid meet">
<metadata>
Created by potrace 1.11, written by Peter Selinger 2001-2013
</metadata>
<g transform="translate(0.000000,300.000000) scale(0.100000,-0.100000)"
fill="#000000" stroke="none">
<path d="M1077 2870 c-218 -55 -327 -164 -327 -325 1 -139 78 -238 208 -265
152 -33 292 73 292 222 0 133 -80 217 -208 218 -88 0 -148 -33 -183 -102 -23
-44 -49 -51 -49 -13 0 38 23 76 71 119 129 118 428 152 607 71 105 -48 229
-197 287 -344 69 -176 92 -401 61 -599 -31 -204 -127 -433 -221 -527 -80 -81
-126 -98 -277 -103 l-128 -4 0 537 0 536 -32 -25 c-75 -57 -233 -61 -338 -9
l-58 28 -6 -50 c-3 -27 -6 -267 -6 -532 l0 -483 -80 0 c-61 0 -80 -3 -80 -14
0 -9 18 -16 52 -20 74 -10 105 -29 118 -74 8 -25 10 -166 8 -442 -3 -381 -4
-407 -23 -445 -25 -50 -75 -76 -161 -83 -35 -2 -64 -9 -64 -13 0 -5 126 -9
280 -9 180 0 280 4 280 10 0 6 -27 10 -61 10 -124 0 -177 28 -198 105 -13 49
-15 869 -2 861 4 -3 92 -163 195 -355 l187 -350 -30 -54 c-74 -130 -14 -207
165 -215 120 -6 177 12 233 73 39 43 41 47 41 110 0 62 -4 74 -75 211 -41 81
-72 151 -68 158 15 23 295 402 309 416 12 12 14 -28 14 -300 0 -173 3 -393 7
-487 l6 -173 -66 0 c-38 0 -67 -4 -67 -10 0 -6 113 -10 320 -10 207 0 320 4
320 10 0 6 -27 10 -60 10 l-60 0 0 525 0 525 60 0 c47 0 60 3 60 15 0 13 -32
15 -252 13 l-253 -3 -176 -245 c-98 -134 -181 -246 -186 -247 -7 -3 -243 437
-243 452 0 3 51 5 114 5 541 0 846 180 933 549 26 111 26 472 0 584 -53 226
-212 402 -448 496 -152 61 -224 73 -454 77 -184 3 -220 1 -288 -16z m208
-2582 c28 -52 31 -78 13 -96 -28 -28 -83 0 -101 51 -7 18 14 79 35 104 13 16
15 14 53 -59z"/>
</g>
</svg>
