<?xml version="1.0" standalone="no"?>
<!DOCTYPE svg PUBLIC "-//W3C//DTD SVG 20010904//EN"
 "http://www.w3.org/TR/2001/REC-SVG-20010904/DTD/svg10.dtd">
<svg version="1.0" xmlns="http://www.w3.org/2000/svg"
 width="100.000000pt" height="100.000000pt" viewBox="0 0 100.000000 100.000000"
 preserveAspectRatio="xMidYMid meet">
<metadata>
Created by potrace 1.11, written by Peter Selinger 2001-2013
</metadata>
<g transform="translate(0.000000,100.000000) scale(0.100000,-0.100000)"
fill="#000000" stroke="none">
<path d="M0 500 l0 -500 500 0 500 0 0 369 c0 333 -2 372 -17 400 -10 17 -24
31 -30 31 -7 0 -18 9 -25 20 -7 11 -22 20 -33 20 -12 0 -54 34 -101 80 l-82
80 -356 0 -356 0 0 -500z m347 147 c58 -31 88 -104 77 -185 -15 -101 -88 -152
-221 -152 l-83 0 0 179 0 180 38 3 c63 5 155 -7 189 -25z m279 -107 c27 -77
51 -140 54 -140 3 0 28 62 55 138 l50 137 48 3 47 3 0 -185 0 -186 -34 0 -33
0 -2 127 c-1 70 -3 129 -4 130 -2 1 -25 -56 -51 -128 -49 -130 -49 -130 -79
-127 -29 3 -32 8 -76 133 l-46 130 -3 -132 -3 -133 -29 0 -30 0 0 185 0 185
44 0 44 0 48 -140z"/>
<path d="M180 490 l0 -130 41 0 c49 0 99 22 117 51 23 36 25 110 5 149 -22 43
-54 60 -115 60 l-48 0 0 -130z"/>
</g>
</svg>
